<?xml version="1.0" encoding="utf-8"?>
<svg 
  xmlns="http://www.w3.org/2000/svg"
  viewBox="0 0 140 135">
  <path d="m 137.73189,45.195 c -3.433,-2.301 -12.452,-3.283 -19.008,-1.524 -0.352,-6.501 -3.723,-11.98 -9.883,-16.761 l -2.28,-1.523 -1.52,2.286 c -2.987,4.513 -4.247,10.529 -3.801,15.998 0.352,3.37 1.528,7.156 3.801,9.904 -8.533002,4.928 -16.401002,3.809 -51.240002,3.809 H 0.01188751 c -0.156,7.832 1.10799999,22.894 10.73000049,35.156 1.064,1.355 2.228,2.665 3.494,3.927 7.824,7.799 19.645,13.518 37.321,13.533 26.967,0.025 50.070002,-14.486 64.125002,-49.567 4.624,0.074 16.833,0.825 22.808,-10.667 0.146,-0.193 1.52,-3.046 1.52,-3.046 l -2.278,-1.523 z M 35.115888,38.034 h -15.126 V 53.09 h 15.126 z m 19.538,0 h -15.125 V 53.09 h 15.125 z m 19.541,0 h -15.125 V 53.09 h 15.125 z m 19.542,0 h -15.126 V 53.09 h 15.126 z m -78.163,0 H 0.44888751 V 53.09 H 15.573888 Z m 19.542,-19.016 h -15.126 v 15.056 h 15.126 z m 19.538,0 h -15.125 v 15.056 h 15.125 z m 19.541,0 h -15.125 v 15.056 h 15.125 z m 0,-19.018 h -15.125 v 15.056 h 15.125 z"/>
</svg>