<?xml version="1.0" encoding="UTF-8" standalone="no"?>
<svg xmlns="http://www.w3.org/2000/svg" viewBox="0 0 22.773 22.773">
  <path d="m 15.769,0 c 0.053,0 0.106,0 0.162,0 0.13,1.606 -0.483,2.806 -1.228,3.675 -0.731,0.863 -1.732,1.7 -3.351,1.573 -0.108,-1.583 0.506,-2.694 1.25,-3.561 0.69,-0.808 1.955,-1.527 3.167,-1.687 0,0 0,0 0,0"/>
  <path d="m 20.67,16.716 c 0,0.016 0,0.03 0,0.045 -0.455,1.378 -1.104,2.559 -1.896,3.655 -0.723,0.995 -1.609,2.334 -3.191,2.334 -1.367,0 -2.275,-0.879 -3.676,-0.903 -1.482,-0.024 -2.297,0.735 -3.652,0.926 -0.155,0 -0.31,0 -0.462,0 C 6.798,22.629 5.995,21.841 5.41,21.131 3.685,19.033 2.352,16.323 2.104,12.855 c 0,-0.34 0,-0.679 0,-1.019 0.105,-2.482 1.311,-4.5 2.914,-5.478 0.846,-0.52 2.009,-0.963 3.304,-0.765 0.555,0.086 1.122,0.276 1.619,0.464 0.471,0.181 1.06,0.502 1.618,0.485 0.378,-0.011 0.754,-0.208 1.135,-0.347 1.116,-0.403 2.21,-0.865 3.652,-0.648 1.733,0.262 2.963,1.032 3.723,2.22 -1.466,0.933 -2.625,2.339 -2.427,4.74 0.176,2.181 1.444,3.457 3.028,4.209 0,0 0,0 0,0"/>
</svg>